<mxfile host="app.diagrams.net" modified="2021-08-14T07:56:02.340Z" agent="5.0 (Windows NT 10.0; Win64; x64) AppleWebKit/537.36 (KHTML, like Gecko) Chrome/92.0.4515.131 Safari/537.36 Edg/92.0.902.67" etag="B4pjpaBDaAhri2JXTBK_" version="14.9.6" type="github">
  <diagram id="3PVPKGMuk8iZUWDpncd-" name="第 1 页">
    <mxGraphModel dx="782" dy="436" grid="1" gridSize="10" guides="1" tooltips="1" connect="1" arrows="1" fold="1" page="1" pageScale="1" pageWidth="827" pageHeight="1169" math="0" shadow="0">
      <root>
        <mxCell id="0" />
        <mxCell id="1" parent="0" />
        <mxCell id="21xIeza0TOriAtmEyd8c-4" value="传播" style="edgeStyle=orthogonalEdgeStyle;rounded=0;orthogonalLoop=1;jettySize=auto;html=1;exitX=0.5;exitY=1;exitDx=0;exitDy=0;" parent="1" source="21xIeza0TOriAtmEyd8c-2" target="21xIeza0TOriAtmEyd8c-3" edge="1">
          <mxGeometry relative="1" as="geometry" />
        </mxCell>
        <mxCell id="21xIeza0TOriAtmEyd8c-2" value="初始发射机&lt;br&gt;（真实源）" style="ellipse;whiteSpace=wrap;html=1;aspect=fixed;" parent="1" vertex="1">
          <mxGeometry x="350" y="50" width="80" height="80" as="geometry" />
        </mxCell>
        <mxCell id="21xIeza0TOriAtmEyd8c-7" value="是" style="edgeStyle=orthogonalEdgeStyle;rounded=0;orthogonalLoop=1;jettySize=auto;html=1;exitX=0.5;exitY=1;exitDx=0;exitDy=0;" parent="1" source="21xIeza0TOriAtmEyd8c-3" target="21xIeza0TOriAtmEyd8c-6" edge="1">
          <mxGeometry relative="1" as="geometry" />
        </mxCell>
        <mxCell id="21xIeza0TOriAtmEyd8c-27" value="否" style="edgeStyle=orthogonalEdgeStyle;rounded=0;orthogonalLoop=1;jettySize=auto;html=1;exitX=1;exitY=0.5;exitDx=0;exitDy=0;" parent="1" source="21xIeza0TOriAtmEyd8c-3" target="21xIeza0TOriAtmEyd8c-26" edge="1">
          <mxGeometry relative="1" as="geometry" />
        </mxCell>
        <mxCell id="21xIeza0TOriAtmEyd8c-3" value="判断到达点是否为建筑物顶点" style="rhombus;whiteSpace=wrap;html=1;" parent="1" vertex="1">
          <mxGeometry x="340" y="160" width="100" height="80" as="geometry" />
        </mxCell>
        <mxCell id="21xIeza0TOriAtmEyd8c-12" style="edgeStyle=orthogonalEdgeStyle;rounded=0;orthogonalLoop=1;jettySize=auto;html=1;exitX=0.5;exitY=1;exitDx=0;exitDy=0;" parent="1" source="21xIeza0TOriAtmEyd8c-6" target="21xIeza0TOriAtmEyd8c-10" edge="1">
          <mxGeometry relative="1" as="geometry" />
        </mxCell>
        <mxCell id="21xIeza0TOriAtmEyd8c-6" value="为一阶&lt;br&gt;一次绕射点" style="ellipse;whiteSpace=wrap;html=1;aspect=fixed;" parent="1" vertex="1">
          <mxGeometry x="350" y="290" width="80" height="80" as="geometry" />
        </mxCell>
        <mxCell id="21xIeza0TOriAtmEyd8c-18" style="edgeStyle=orthogonalEdgeStyle;rounded=0;orthogonalLoop=1;jettySize=auto;html=1;exitX=0.5;exitY=1;exitDx=0;exitDy=0;" parent="1" source="21xIeza0TOriAtmEyd8c-10" target="21xIeza0TOriAtmEyd8c-15" edge="1">
          <mxGeometry relative="1" as="geometry" />
        </mxCell>
        <mxCell id="21xIeza0TOriAtmEyd8c-10" value="绕射过程类似初始情况，但不进入建筑物内部" style="rounded=0;whiteSpace=wrap;html=1;" parent="1" vertex="1">
          <mxGeometry x="320" y="400" width="140" height="40" as="geometry" />
        </mxCell>
        <mxCell id="21xIeza0TOriAtmEyd8c-11" value="如何判断射线进入建筑物内部？&lt;br&gt;如何判定射线到达接收点？&lt;br&gt;其实可以一直循环一次判断，最后把不符合约束条件的去除就可以" style="text;html=1;strokeColor=none;fillColor=none;align=center;verticalAlign=middle;whiteSpace=wrap;rounded=0;" parent="1" vertex="1">
          <mxGeometry x="60" y="70" width="210" height="40" as="geometry" />
        </mxCell>
        <mxCell id="21xIeza0TOriAtmEyd8c-13" value="是" style="edgeStyle=orthogonalEdgeStyle;rounded=0;orthogonalLoop=1;jettySize=auto;html=1;exitX=0.5;exitY=1;exitDx=0;exitDy=0;" parent="1" source="21xIeza0TOriAtmEyd8c-15" target="21xIeza0TOriAtmEyd8c-16" edge="1">
          <mxGeometry relative="1" as="geometry" />
        </mxCell>
        <mxCell id="21xIeza0TOriAtmEyd8c-19" value="否" style="edgeStyle=orthogonalEdgeStyle;rounded=0;orthogonalLoop=1;jettySize=auto;html=1;exitX=0;exitY=0.5;exitDx=0;exitDy=0;entryX=0.5;entryY=0;entryDx=0;entryDy=0;" parent="1" source="21xIeza0TOriAtmEyd8c-15" target="21xIeza0TOriAtmEyd8c-17" edge="1">
          <mxGeometry relative="1" as="geometry" />
        </mxCell>
        <mxCell id="21xIeza0TOriAtmEyd8c-15" value="判断到达点是否为建筑物顶点" style="rhombus;whiteSpace=wrap;html=1;" parent="1" vertex="1">
          <mxGeometry x="340" y="460" width="100" height="80" as="geometry" />
        </mxCell>
        <mxCell id="21xIeza0TOriAtmEyd8c-22" style="edgeStyle=orthogonalEdgeStyle;rounded=0;orthogonalLoop=1;jettySize=auto;html=1;exitX=0.5;exitY=1;exitDx=0;exitDy=0;" parent="1" source="21xIeza0TOriAtmEyd8c-16" target="21xIeza0TOriAtmEyd8c-21" edge="1">
          <mxGeometry relative="1" as="geometry" />
        </mxCell>
        <mxCell id="21xIeza0TOriAtmEyd8c-28" value="再一次反射" style="edgeStyle=orthogonalEdgeStyle;rounded=0;orthogonalLoop=1;jettySize=auto;html=1;exitX=1;exitY=0.5;exitDx=0;exitDy=0;entryX=0.5;entryY=0;entryDx=0;entryDy=0;" parent="1" source="21xIeza0TOriAtmEyd8c-16" target="21xIeza0TOriAtmEyd8c-29" edge="1">
          <mxGeometry relative="1" as="geometry">
            <mxPoint x="470" y="680" as="targetPoint" />
          </mxGeometry>
        </mxCell>
        <mxCell id="21xIeza0TOriAtmEyd8c-16" value="为二阶&lt;br&gt;二次绕射点" style="ellipse;whiteSpace=wrap;html=1;aspect=fixed;" parent="1" vertex="1">
          <mxGeometry x="350" y="570" width="80" height="80" as="geometry" />
        </mxCell>
        <mxCell id="21xIeza0TOriAtmEyd8c-17" value="为二阶&lt;br&gt;一次反射点" style="ellipse;whiteSpace=wrap;html=1;aspect=fixed;" parent="1" vertex="1">
          <mxGeometry x="250" y="570" width="80" height="80" as="geometry" />
        </mxCell>
        <mxCell id="21xIeza0TOriAtmEyd8c-20" value="忽视建筑物和地形在高度上的变化，变成二维问题，同时只考虑反射和绕射两种传播机制。&lt;br&gt;同样，我们仅考虑下列收、发射机间传播路径：&lt;br&gt;只存在反射, 且反射次数不超过7次；&lt;br&gt;只存在绕射, 且绕射次数不超过2次；&lt;br&gt;一次绕射与一次、两次、三次或四次反射的任意组合；&lt;br&gt;两次绕射和一次反射的任意组合。" style="text;html=1;strokeColor=none;fillColor=none;align=center;verticalAlign=middle;whiteSpace=wrap;rounded=0;" parent="1" vertex="1">
          <mxGeometry x="490" y="20" width="310" height="100" as="geometry" />
        </mxCell>
        <mxCell id="21xIeza0TOriAtmEyd8c-36" style="edgeStyle=orthogonalEdgeStyle;rounded=0;orthogonalLoop=1;jettySize=auto;html=1;exitX=0.5;exitY=1;exitDx=0;exitDy=0;" parent="1" source="21xIeza0TOriAtmEyd8c-21" target="21xIeza0TOriAtmEyd8c-34" edge="1">
          <mxGeometry relative="1" as="geometry" />
        </mxCell>
        <mxCell id="21xIeza0TOriAtmEyd8c-21" value="遍历得到所有符合约束条件的传播路径" style="rounded=0;whiteSpace=wrap;html=1;" parent="1" vertex="1">
          <mxGeometry x="320" y="910" width="140" height="30" as="geometry" />
        </mxCell>
        <mxCell id="21xIeza0TOriAtmEyd8c-32" style="edgeStyle=orthogonalEdgeStyle;rounded=0;orthogonalLoop=1;jettySize=auto;html=1;exitX=0.5;exitY=1;exitDx=0;exitDy=0;" parent="1" source="21xIeza0TOriAtmEyd8c-26" target="21xIeza0TOriAtmEyd8c-31" edge="1">
          <mxGeometry relative="1" as="geometry" />
        </mxCell>
        <mxCell id="21xIeza0TOriAtmEyd8c-26" value="为一阶&lt;br&gt;一次反射点" style="ellipse;whiteSpace=wrap;html=1;aspect=fixed;" parent="1" vertex="1">
          <mxGeometry x="490" y="290" width="80" height="80" as="geometry" />
        </mxCell>
        <mxCell id="21xIeza0TOriAtmEyd8c-30" style="edgeStyle=orthogonalEdgeStyle;rounded=0;orthogonalLoop=1;jettySize=auto;html=1;exitX=0.5;exitY=1;exitDx=0;exitDy=0;entryX=0.5;entryY=0;entryDx=0;entryDy=0;" parent="1" source="21xIeza0TOriAtmEyd8c-29" target="21xIeza0TOriAtmEyd8c-21" edge="1">
          <mxGeometry relative="1" as="geometry" />
        </mxCell>
        <mxCell id="21xIeza0TOriAtmEyd8c-29" value="三阶&lt;br&gt;一次反射点" style="ellipse;whiteSpace=wrap;html=1;aspect=fixed;" parent="1" vertex="1">
          <mxGeometry x="420" y="750" width="80" height="80" as="geometry" />
        </mxCell>
        <mxCell id="21xIeza0TOriAtmEyd8c-41" value="是" style="edgeStyle=orthogonalEdgeStyle;rounded=0;orthogonalLoop=1;jettySize=auto;html=1;exitX=0.5;exitY=1;exitDx=0;exitDy=0;" parent="1" source="21xIeza0TOriAtmEyd8c-31" target="21xIeza0TOriAtmEyd8c-33" edge="1">
          <mxGeometry relative="1" as="geometry" />
        </mxCell>
        <mxCell id="21xIeza0TOriAtmEyd8c-43" value="否" style="edgeStyle=orthogonalEdgeStyle;rounded=0;orthogonalLoop=1;jettySize=auto;html=1;exitX=1;exitY=0.5;exitDx=0;exitDy=0;" parent="1" source="21xIeza0TOriAtmEyd8c-31" target="21xIeza0TOriAtmEyd8c-42" edge="1">
          <mxGeometry relative="1" as="geometry" />
        </mxCell>
        <mxCell id="21xIeza0TOriAtmEyd8c-31" value="判断到达点是否为建筑物顶点" style="rhombus;whiteSpace=wrap;html=1;" parent="1" vertex="1">
          <mxGeometry x="480" y="400" width="100" height="80" as="geometry" />
        </mxCell>
        <mxCell id="21xIeza0TOriAtmEyd8c-45" style="edgeStyle=orthogonalEdgeStyle;rounded=0;orthogonalLoop=1;jettySize=auto;html=1;exitX=0.5;exitY=1;exitDx=0;exitDy=0;dashed=1;endArrow=none;endFill=0;" parent="1" source="21xIeza0TOriAtmEyd8c-33" edge="1">
          <mxGeometry relative="1" as="geometry">
            <mxPoint x="530" y="750" as="targetPoint" />
          </mxGeometry>
        </mxCell>
        <mxCell id="21xIeza0TOriAtmEyd8c-33" value="为二阶&lt;br&gt;一次绕射点" style="ellipse;whiteSpace=wrap;html=1;aspect=fixed;" parent="1" vertex="1">
          <mxGeometry x="490" y="570" width="80" height="80" as="geometry" />
        </mxCell>
        <mxCell id="21xIeza0TOriAtmEyd8c-37" style="edgeStyle=orthogonalEdgeStyle;rounded=0;orthogonalLoop=1;jettySize=auto;html=1;exitX=0.5;exitY=1;exitDx=0;exitDy=0;entryX=0.5;entryY=0;entryDx=0;entryDy=0;" parent="1" source="21xIeza0TOriAtmEyd8c-34" target="21xIeza0TOriAtmEyd8c-35" edge="1">
          <mxGeometry relative="1" as="geometry" />
        </mxCell>
        <mxCell id="21xIeza0TOriAtmEyd8c-34" value="选择到达接收点的路径" style="rhombus;whiteSpace=wrap;html=1;" parent="1" vertex="1">
          <mxGeometry x="340" y="970" width="100" height="80" as="geometry" />
        </mxCell>
        <mxCell id="21xIeza0TOriAtmEyd8c-40" style="edgeStyle=orthogonalEdgeStyle;rounded=0;orthogonalLoop=1;jettySize=auto;html=1;exitX=0.5;exitY=1;exitDx=0;exitDy=0;" parent="1" source="21xIeza0TOriAtmEyd8c-35" target="21xIeza0TOriAtmEyd8c-38" edge="1">
          <mxGeometry relative="1" as="geometry" />
        </mxCell>
        <mxCell id="21xIeza0TOriAtmEyd8c-35" value="构建符合目标函数的传播路径集" style="rounded=0;whiteSpace=wrap;html=1;" parent="1" vertex="1">
          <mxGeometry x="320" y="1081" width="140" height="30" as="geometry" />
        </mxCell>
        <mxCell id="21xIeza0TOriAtmEyd8c-38" value="结束" style="rounded=1;whiteSpace=wrap;html=1;" parent="1" vertex="1">
          <mxGeometry x="345" y="1141" width="90" height="20" as="geometry" />
        </mxCell>
        <mxCell id="21xIeza0TOriAtmEyd8c-46" style="edgeStyle=orthogonalEdgeStyle;rounded=0;orthogonalLoop=1;jettySize=auto;html=1;exitX=0.5;exitY=1;exitDx=0;exitDy=0;dashed=1;endArrow=none;endFill=0;" parent="1" source="21xIeza0TOriAtmEyd8c-42" edge="1">
          <mxGeometry relative="1" as="geometry">
            <mxPoint x="660" y="750" as="targetPoint" />
          </mxGeometry>
        </mxCell>
        <mxCell id="21xIeza0TOriAtmEyd8c-42" value="为二阶&lt;br&gt;二次绕射点" style="ellipse;whiteSpace=wrap;html=1;aspect=fixed;rounded=0;" parent="1" vertex="1">
          <mxGeometry x="620" y="570" width="80" height="80" as="geometry" />
        </mxCell>
        <mxCell id="21xIeza0TOriAtmEyd8c-47" value="传播" style="edgeStyle=orthogonalEdgeStyle;rounded=0;orthogonalLoop=1;jettySize=auto;html=1;exitX=0.5;exitY=1;exitDx=0;exitDy=0;" parent="1" source="21xIeza0TOriAtmEyd8c-48" target="21xIeza0TOriAtmEyd8c-51" edge="1">
          <mxGeometry relative="1" as="geometry" />
        </mxCell>
        <mxCell id="21xIeza0TOriAtmEyd8c-48" value="确定&lt;br&gt;初始发射机&lt;br&gt;（真实源）" style="ellipse;whiteSpace=wrap;html=1;aspect=fixed;" parent="1" vertex="1">
          <mxGeometry x="350" y="1230" width="80" height="80" as="geometry" />
        </mxCell>
        <mxCell id="21xIeza0TOriAtmEyd8c-49" value="是" style="edgeStyle=orthogonalEdgeStyle;rounded=0;orthogonalLoop=1;jettySize=auto;html=1;exitX=0.5;exitY=1;exitDx=0;exitDy=0;" parent="1" source="21xIeza0TOriAtmEyd8c-51" target="21xIeza0TOriAtmEyd8c-52" edge="1">
          <mxGeometry relative="1" as="geometry" />
        </mxCell>
        <mxCell id="21xIeza0TOriAtmEyd8c-50" value="否" style="edgeStyle=orthogonalEdgeStyle;rounded=0;orthogonalLoop=1;jettySize=auto;html=1;exitX=1;exitY=0.5;exitDx=0;exitDy=0;" parent="1" source="21xIeza0TOriAtmEyd8c-51" target="21xIeza0TOriAtmEyd8c-53" edge="1">
          <mxGeometry relative="1" as="geometry" />
        </mxCell>
        <mxCell id="21xIeza0TOriAtmEyd8c-51" value="判断到达点是否为建筑物顶点" style="rhombus;whiteSpace=wrap;html=1;" parent="1" vertex="1">
          <mxGeometry x="340" y="1340" width="100" height="80" as="geometry" />
        </mxCell>
        <mxCell id="21xIeza0TOriAtmEyd8c-57" style="edgeStyle=orthogonalEdgeStyle;rounded=0;orthogonalLoop=1;jettySize=auto;html=1;exitX=0.5;exitY=1;exitDx=0;exitDy=0;entryX=0.5;entryY=0;entryDx=0;entryDy=0;endArrow=classic;endFill=1;" parent="1" source="21xIeza0TOriAtmEyd8c-52" target="21xIeza0TOriAtmEyd8c-56" edge="1">
          <mxGeometry relative="1" as="geometry" />
        </mxCell>
        <mxCell id="21xIeza0TOriAtmEyd8c-52" value="为一阶&lt;br&gt;绕射点" style="ellipse;whiteSpace=wrap;html=1;aspect=fixed;" parent="1" vertex="1">
          <mxGeometry x="350" y="1470" width="80" height="80" as="geometry" />
        </mxCell>
        <mxCell id="21xIeza0TOriAtmEyd8c-66" style="edgeStyle=orthogonalEdgeStyle;rounded=0;orthogonalLoop=1;jettySize=auto;html=1;exitX=0.5;exitY=1;exitDx=0;exitDy=0;entryX=0.5;entryY=0;entryDx=0;entryDy=0;endArrow=classic;endFill=1;" parent="1" source="21xIeza0TOriAtmEyd8c-53" target="21xIeza0TOriAtmEyd8c-78" edge="1">
          <mxGeometry relative="1" as="geometry">
            <mxPoint x="390" y="1690" as="targetPoint" />
            <Array as="points">
              <mxPoint x="530" y="1660" />
              <mxPoint x="390" y="1660" />
              <mxPoint x="390" y="1717" />
            </Array>
          </mxGeometry>
        </mxCell>
        <mxCell id="21xIeza0TOriAtmEyd8c-53" value="为一阶&lt;br&gt;反射点" style="ellipse;whiteSpace=wrap;html=1;aspect=fixed;" parent="1" vertex="1">
          <mxGeometry x="490" y="1470" width="80" height="80" as="geometry" />
        </mxCell>
        <mxCell id="21xIeza0TOriAtmEyd8c-55" style="edgeStyle=orthogonalEdgeStyle;rounded=0;orthogonalLoop=1;jettySize=auto;html=1;exitX=0.5;exitY=1;exitDx=0;exitDy=0;endArrow=classic;endFill=1;" parent="1" source="21xIeza0TOriAtmEyd8c-54" target="21xIeza0TOriAtmEyd8c-48" edge="1">
          <mxGeometry relative="1" as="geometry" />
        </mxCell>
        <mxCell id="21xIeza0TOriAtmEyd8c-54" value="开始" style="rounded=1;whiteSpace=wrap;html=1;" parent="1" vertex="1">
          <mxGeometry x="345" y="1190" width="90" height="20" as="geometry" />
        </mxCell>
        <mxCell id="21xIeza0TOriAtmEyd8c-59" style="edgeStyle=orthogonalEdgeStyle;rounded=0;orthogonalLoop=1;jettySize=auto;html=1;exitX=0.5;exitY=1;exitDx=0;exitDy=0;endArrow=classic;endFill=1;entryX=0.5;entryY=0;entryDx=0;entryDy=0;" parent="1" source="21xIeza0TOriAtmEyd8c-56" target="21xIeza0TOriAtmEyd8c-78" edge="1">
          <mxGeometry relative="1" as="geometry">
            <mxPoint x="390" y="1690" as="targetPoint" />
          </mxGeometry>
        </mxCell>
        <mxCell id="21xIeza0TOriAtmEyd8c-56" value="绕射过程类似初始情况，但不进入建筑物内部" style="rounded=0;whiteSpace=wrap;html=1;" parent="1" vertex="1">
          <mxGeometry x="320" y="1600" width="140" height="40" as="geometry" />
        </mxCell>
        <mxCell id="21xIeza0TOriAtmEyd8c-84" style="edgeStyle=orthogonalEdgeStyle;rounded=0;orthogonalLoop=1;jettySize=auto;html=1;exitX=0.5;exitY=1;exitDx=0;exitDy=0;endArrow=classic;endFill=1;" parent="1" source="21xIeza0TOriAtmEyd8c-78" target="21xIeza0TOriAtmEyd8c-80" edge="1">
          <mxGeometry relative="1" as="geometry" />
        </mxCell>
        <mxCell id="21xIeza0TOriAtmEyd8c-85" style="edgeStyle=orthogonalEdgeStyle;rounded=0;orthogonalLoop=1;jettySize=auto;html=1;exitX=0;exitY=0.5;exitDx=0;exitDy=0;entryX=0;entryY=0.5;entryDx=0;entryDy=0;endArrow=classic;endFill=1;" parent="1" source="21xIeza0TOriAtmEyd8c-78" target="21xIeza0TOriAtmEyd8c-48" edge="1">
          <mxGeometry relative="1" as="geometry" />
        </mxCell>
        <mxCell id="21xIeza0TOriAtmEyd8c-78" value="遍历所有初始射线和所有符合约束条件的情况（需要判断）" style="rounded=0;whiteSpace=wrap;html=1;" parent="1" vertex="1">
          <mxGeometry x="310" y="1710" width="160" height="40" as="geometry" />
        </mxCell>
        <mxCell id="21xIeza0TOriAtmEyd8c-79" style="edgeStyle=orthogonalEdgeStyle;rounded=0;orthogonalLoop=1;jettySize=auto;html=1;exitX=0.5;exitY=1;exitDx=0;exitDy=0;entryX=0.5;entryY=0;entryDx=0;entryDy=0;" parent="1" source="21xIeza0TOriAtmEyd8c-80" target="21xIeza0TOriAtmEyd8c-82" edge="1">
          <mxGeometry relative="1" as="geometry" />
        </mxCell>
        <mxCell id="21xIeza0TOriAtmEyd8c-80" value="选择到达接收点的路径" style="rhombus;whiteSpace=wrap;html=1;" parent="1" vertex="1">
          <mxGeometry x="340" y="1800" width="100" height="80" as="geometry" />
        </mxCell>
        <mxCell id="21xIeza0TOriAtmEyd8c-81" style="edgeStyle=orthogonalEdgeStyle;rounded=0;orthogonalLoop=1;jettySize=auto;html=1;exitX=0.5;exitY=1;exitDx=0;exitDy=0;" parent="1" source="21xIeza0TOriAtmEyd8c-82" target="21xIeza0TOriAtmEyd8c-83" edge="1">
          <mxGeometry relative="1" as="geometry" />
        </mxCell>
        <mxCell id="21xIeza0TOriAtmEyd8c-82" value="构建符合目标函数的传播路径集" style="rounded=0;whiteSpace=wrap;html=1;" parent="1" vertex="1">
          <mxGeometry x="320" y="1911" width="140" height="30" as="geometry" />
        </mxCell>
        <mxCell id="21xIeza0TOriAtmEyd8c-83" value="结束" style="rounded=1;whiteSpace=wrap;html=1;" parent="1" vertex="1">
          <mxGeometry x="345" y="1971" width="90" height="20" as="geometry" />
        </mxCell>
        <mxCell id="zxNHMKGxiTFcUSZEscb6-22" style="edgeStyle=orthogonalEdgeStyle;rounded=0;orthogonalLoop=1;jettySize=auto;html=1;exitX=0.5;exitY=1;exitDx=0;exitDy=0;entryX=0.5;entryY=0;entryDx=0;entryDy=0;" edge="1" parent="1" source="zxNHMKGxiTFcUSZEscb6-2" target="zxNHMKGxiTFcUSZEscb6-5">
          <mxGeometry relative="1" as="geometry" />
        </mxCell>
        <mxCell id="zxNHMKGxiTFcUSZEscb6-2" value="确定发射机&lt;br&gt;（根节点）" style="rounded=0;whiteSpace=wrap;html=1;" vertex="1" parent="1">
          <mxGeometry x="440" y="2320" width="80" height="30" as="geometry" />
        </mxCell>
        <mxCell id="zxNHMKGxiTFcUSZEscb6-3" value="是" style="edgeStyle=orthogonalEdgeStyle;rounded=0;orthogonalLoop=1;jettySize=auto;html=1;exitX=0.5;exitY=1;exitDx=0;exitDy=0;" edge="1" parent="1" source="zxNHMKGxiTFcUSZEscb6-5" target="zxNHMKGxiTFcUSZEscb6-7">
          <mxGeometry relative="1" as="geometry">
            <mxPoint as="offset" />
          </mxGeometry>
        </mxCell>
        <mxCell id="zxNHMKGxiTFcUSZEscb6-4" value="否" style="edgeStyle=orthogonalEdgeStyle;rounded=0;orthogonalLoop=1;jettySize=auto;html=1;exitX=1;exitY=0.5;exitDx=0;exitDy=0;entryX=0.5;entryY=0;entryDx=0;entryDy=0;" edge="1" parent="1" source="zxNHMKGxiTFcUSZEscb6-5" target="zxNHMKGxiTFcUSZEscb6-23">
          <mxGeometry x="-0.4118" relative="1" as="geometry">
            <mxPoint x="620" y="2510" as="targetPoint" />
            <Array as="points">
              <mxPoint x="550" y="2395" />
              <mxPoint x="550" y="2520" />
              <mxPoint x="480" y="2520" />
            </Array>
            <mxPoint as="offset" />
          </mxGeometry>
        </mxCell>
        <mxCell id="zxNHMKGxiTFcUSZEscb6-5" value="发现可达路径" style="rhombus;whiteSpace=wrap;html=1;" vertex="1" parent="1">
          <mxGeometry x="430" y="2370" width="100" height="50" as="geometry" />
        </mxCell>
        <mxCell id="zxNHMKGxiTFcUSZEscb6-24" style="edgeStyle=orthogonalEdgeStyle;rounded=0;orthogonalLoop=1;jettySize=auto;html=1;exitX=0.5;exitY=1;exitDx=0;exitDy=0;" edge="1" parent="1" source="zxNHMKGxiTFcUSZEscb6-7" target="zxNHMKGxiTFcUSZEscb6-23">
          <mxGeometry relative="1" as="geometry" />
        </mxCell>
        <mxCell id="zxNHMKGxiTFcUSZEscb6-7" value="储存当前路径" style="rounded=0;whiteSpace=wrap;html=1;" vertex="1" parent="1">
          <mxGeometry x="440" y="2460" width="80" height="40" as="geometry" />
        </mxCell>
        <mxCell id="zxNHMKGxiTFcUSZEscb6-10" style="edgeStyle=orthogonalEdgeStyle;rounded=0;orthogonalLoop=1;jettySize=auto;html=1;exitX=0.5;exitY=1;exitDx=0;exitDy=0;endArrow=classic;endFill=1;" edge="1" parent="1" source="zxNHMKGxiTFcUSZEscb6-11" target="zxNHMKGxiTFcUSZEscb6-2">
          <mxGeometry relative="1" as="geometry" />
        </mxCell>
        <mxCell id="zxNHMKGxiTFcUSZEscb6-11" value="开始" style="rounded=1;whiteSpace=wrap;html=1;" vertex="1" parent="1">
          <mxGeometry x="435" y="2280" width="90" height="20" as="geometry" />
        </mxCell>
        <mxCell id="zxNHMKGxiTFcUSZEscb6-30" style="edgeStyle=orthogonalEdgeStyle;rounded=0;orthogonalLoop=1;jettySize=auto;html=1;exitX=0.5;exitY=1;exitDx=0;exitDy=0;entryX=0.5;entryY=0;entryDx=0;entryDy=0;" edge="1" parent="1" source="zxNHMKGxiTFcUSZEscb6-13" target="zxNHMKGxiTFcUSZEscb6-29">
          <mxGeometry relative="1" as="geometry" />
        </mxCell>
        <mxCell id="zxNHMKGxiTFcUSZEscb6-13" value="继续寻找所有有效镜像节点" style="rounded=0;whiteSpace=wrap;html=1;" vertex="1" parent="1">
          <mxGeometry x="430" y="2630" width="100" height="40" as="geometry" />
        </mxCell>
        <mxCell id="zxNHMKGxiTFcUSZEscb6-17" value="是" style="edgeStyle=orthogonalEdgeStyle;rounded=0;orthogonalLoop=1;jettySize=auto;html=1;exitX=0.5;exitY=1;exitDx=0;exitDy=0;entryX=0.5;entryY=0;entryDx=0;entryDy=0;" edge="1" parent="1" source="zxNHMKGxiTFcUSZEscb6-18" target="zxNHMKGxiTFcUSZEscb6-20">
          <mxGeometry x="-0.4737" relative="1" as="geometry">
            <mxPoint y="1" as="offset" />
          </mxGeometry>
        </mxCell>
        <mxCell id="zxNHMKGxiTFcUSZEscb6-36" value="否" style="edgeStyle=orthogonalEdgeStyle;rounded=0;orthogonalLoop=1;jettySize=auto;html=1;exitX=1;exitY=0.5;exitDx=0;exitDy=0;entryX=0;entryY=0.5;entryDx=0;entryDy=0;" edge="1" parent="1" source="zxNHMKGxiTFcUSZEscb6-18" target="zxNHMKGxiTFcUSZEscb6-27">
          <mxGeometry relative="1" as="geometry">
            <Array as="points">
              <mxPoint x="560" y="2883" />
              <mxPoint x="560" y="2660" />
            </Array>
          </mxGeometry>
        </mxCell>
        <mxCell id="zxNHMKGxiTFcUSZEscb6-18" value="剩余可能的镜像节点&lt;br&gt;和绕射节点判断" style="rhombus;whiteSpace=wrap;html=1;" vertex="1" parent="1">
          <mxGeometry x="410" y="2842.5" width="140" height="80" as="geometry" />
        </mxCell>
        <mxCell id="zxNHMKGxiTFcUSZEscb6-42" style="edgeStyle=orthogonalEdgeStyle;rounded=0;orthogonalLoop=1;jettySize=auto;html=1;exitX=0;exitY=0.5;exitDx=0;exitDy=0;entryX=0;entryY=0.5;entryDx=0;entryDy=0;" edge="1" parent="1" source="zxNHMKGxiTFcUSZEscb6-20" target="zxNHMKGxiTFcUSZEscb6-5">
          <mxGeometry relative="1" as="geometry" />
        </mxCell>
        <mxCell id="zxNHMKGxiTFcUSZEscb6-20" value="指向下一个节点" style="rounded=0;whiteSpace=wrap;html=1;" vertex="1" parent="1">
          <mxGeometry x="410" y="2951" width="140" height="30" as="geometry" />
        </mxCell>
        <mxCell id="zxNHMKGxiTFcUSZEscb6-21" value="结束" style="rounded=1;whiteSpace=wrap;html=1;" vertex="1" parent="1">
          <mxGeometry x="610" y="3000" width="90" height="20" as="geometry" />
        </mxCell>
        <mxCell id="zxNHMKGxiTFcUSZEscb6-26" value="是" style="edgeStyle=orthogonalEdgeStyle;rounded=0;orthogonalLoop=1;jettySize=auto;html=1;exitX=0.5;exitY=1;exitDx=0;exitDy=0;entryX=0.5;entryY=0;entryDx=0;entryDy=0;" edge="1" parent="1" source="zxNHMKGxiTFcUSZEscb6-23" target="zxNHMKGxiTFcUSZEscb6-13">
          <mxGeometry relative="1" as="geometry">
            <mxPoint as="offset" />
          </mxGeometry>
        </mxCell>
        <mxCell id="zxNHMKGxiTFcUSZEscb6-28" value="否" style="edgeStyle=orthogonalEdgeStyle;rounded=0;orthogonalLoop=1;jettySize=auto;html=1;exitX=1;exitY=0.5;exitDx=0;exitDy=0;" edge="1" parent="1" source="zxNHMKGxiTFcUSZEscb6-23" target="zxNHMKGxiTFcUSZEscb6-27">
          <mxGeometry relative="1" as="geometry" />
        </mxCell>
        <mxCell id="zxNHMKGxiTFcUSZEscb6-23" value="判断反射&lt;br&gt;和绕射次数" style="rhombus;whiteSpace=wrap;html=1;" vertex="1" parent="1">
          <mxGeometry x="430" y="2530" width="100" height="60" as="geometry" />
        </mxCell>
        <mxCell id="zxNHMKGxiTFcUSZEscb6-35" style="edgeStyle=orthogonalEdgeStyle;rounded=0;orthogonalLoop=1;jettySize=auto;html=1;exitX=0.5;exitY=1;exitDx=0;exitDy=0;" edge="1" parent="1" source="zxNHMKGxiTFcUSZEscb6-27" target="zxNHMKGxiTFcUSZEscb6-34">
          <mxGeometry relative="1" as="geometry" />
        </mxCell>
        <mxCell id="zxNHMKGxiTFcUSZEscb6-27" value="回溯父亲节点" style="rounded=0;whiteSpace=wrap;html=1;" vertex="1" parent="1">
          <mxGeometry x="605" y="2640" width="100" height="40" as="geometry" />
        </mxCell>
        <mxCell id="zxNHMKGxiTFcUSZEscb6-32" style="edgeStyle=orthogonalEdgeStyle;rounded=0;orthogonalLoop=1;jettySize=auto;html=1;exitX=0.5;exitY=1;exitDx=0;exitDy=0;" edge="1" parent="1" source="zxNHMKGxiTFcUSZEscb6-29" target="zxNHMKGxiTFcUSZEscb6-31">
          <mxGeometry relative="1" as="geometry" />
        </mxCell>
        <mxCell id="zxNHMKGxiTFcUSZEscb6-29" value="判断绕射次数" style="rhombus;whiteSpace=wrap;html=1;" vertex="1" parent="1">
          <mxGeometry x="430" y="2700" width="100" height="50" as="geometry" />
        </mxCell>
        <mxCell id="zxNHMKGxiTFcUSZEscb6-33" style="edgeStyle=orthogonalEdgeStyle;rounded=0;orthogonalLoop=1;jettySize=auto;html=1;exitX=0.5;exitY=1;exitDx=0;exitDy=0;entryX=0.5;entryY=0;entryDx=0;entryDy=0;" edge="1" parent="1" source="zxNHMKGxiTFcUSZEscb6-31" target="zxNHMKGxiTFcUSZEscb6-18">
          <mxGeometry relative="1" as="geometry" />
        </mxCell>
        <mxCell id="zxNHMKGxiTFcUSZEscb6-31" value="继续寻找所有有效绕射节点" style="rounded=0;whiteSpace=wrap;html=1;" vertex="1" parent="1">
          <mxGeometry x="430" y="2780" width="100" height="40" as="geometry" />
        </mxCell>
        <mxCell id="zxNHMKGxiTFcUSZEscb6-37" value="否" style="edgeStyle=orthogonalEdgeStyle;rounded=0;orthogonalLoop=1;jettySize=auto;html=1;exitX=0;exitY=0.5;exitDx=0;exitDy=0;entryX=1;entryY=0.5;entryDx=0;entryDy=0;" edge="1" parent="1" source="zxNHMKGxiTFcUSZEscb6-34" target="zxNHMKGxiTFcUSZEscb6-20">
          <mxGeometry relative="1" as="geometry">
            <Array as="points">
              <mxPoint x="570" y="2803" />
              <mxPoint x="570" y="2966" />
            </Array>
          </mxGeometry>
        </mxCell>
        <mxCell id="zxNHMKGxiTFcUSZEscb6-39" style="edgeStyle=orthogonalEdgeStyle;rounded=0;orthogonalLoop=1;jettySize=auto;html=1;exitX=0.5;exitY=1;exitDx=0;exitDy=0;" edge="1" parent="1" source="zxNHMKGxiTFcUSZEscb6-34" target="zxNHMKGxiTFcUSZEscb6-38">
          <mxGeometry relative="1" as="geometry" />
        </mxCell>
        <mxCell id="zxNHMKGxiTFcUSZEscb6-34" value="所有的镜像节点和绕射&lt;br&gt;节点是否被搜索完" style="rhombus;whiteSpace=wrap;html=1;" vertex="1" parent="1">
          <mxGeometry x="580" y="2762.5" width="150" height="80" as="geometry" />
        </mxCell>
        <mxCell id="zxNHMKGxiTFcUSZEscb6-40" value="是" style="edgeStyle=orthogonalEdgeStyle;rounded=0;orthogonalLoop=1;jettySize=auto;html=1;exitX=0.5;exitY=1;exitDx=0;exitDy=0;entryX=0.5;entryY=0;entryDx=0;entryDy=0;" edge="1" parent="1" source="zxNHMKGxiTFcUSZEscb6-38" target="zxNHMKGxiTFcUSZEscb6-21">
          <mxGeometry relative="1" as="geometry" />
        </mxCell>
        <mxCell id="zxNHMKGxiTFcUSZEscb6-41" value="否" style="edgeStyle=orthogonalEdgeStyle;rounded=0;orthogonalLoop=1;jettySize=auto;html=1;exitX=1;exitY=0.5;exitDx=0;exitDy=0;entryX=1;entryY=0.5;entryDx=0;entryDy=0;" edge="1" parent="1" source="zxNHMKGxiTFcUSZEscb6-38" target="zxNHMKGxiTFcUSZEscb6-27">
          <mxGeometry relative="1" as="geometry">
            <Array as="points">
              <mxPoint x="740" y="2923" />
              <mxPoint x="740" y="2660" />
            </Array>
          </mxGeometry>
        </mxCell>
        <mxCell id="zxNHMKGxiTFcUSZEscb6-38" value="是否指向根节点" style="rhombus;whiteSpace=wrap;html=1;" vertex="1" parent="1">
          <mxGeometry x="605" y="2898" width="100" height="50" as="geometry" />
        </mxCell>
      </root>
    </mxGraphModel>
  </diagram>
</mxfile>
